<svg width="14" height="10" viewBox="0 0 14 10" fill="none" xmlns="http://www.w3.org/2000/svg">
<path d="M13 5.00005C7.78095 -1.34908 2.81716 2.21211 1 5.00005C2.2 7.00004 4.5 8.16671 5.5 8.50005C9.1 9.30005 12 6.50005 13 5.00005Z" stroke="#294E68" stroke-linecap="round" stroke-linejoin="round"/>
<path fill-rule="evenodd" clip-rule="evenodd" d="M7 7C8.65685 7 10 5.65685 10 4C10 2.34315 8.65685 1 7 1C5.34315 1 4 2.34315 4 4C4 5.65685 5.34315 7 7 7ZM7.26366 2.54904C7.20123 2.61159 7.12514 2.64283 7.03588 2.64283C6.65198 2.64283 6.32378 2.77906 6.05148 3.05131C5.7791 3.32373 5.643 3.65181 5.643 4.03571C5.643 4.12509 5.61166 4.20092 5.54921 4.26345C5.48663 4.326 5.41078 4.35724 5.32153 4.35724C5.2322 4.35724 5.1563 4.32595 5.09379 4.26345C5.03124 4.20092 5 4.125 5 4.03571C5 3.47773 5.19983 2.99889 5.59933 2.59933C5.99885 2.19981 6.47762 2 7.03569 2C7.12496 2 7.20088 2.03134 7.2635 2.09379C7.32594 2.15628 7.35722 2.2322 7.35722 2.32146C7.35725 2.41078 7.32596 2.48667 7.26366 2.54904Z" fill="#294E68"/>
</svg>
