<svg width="22" height="22" viewBox="0 0 22 22" fill="none" xmlns="http://www.w3.org/2000/svg">
<path d="M11 10.381C11.2652 10.381 11.5196 10.2706 11.7071 10.0741C11.8946 9.87765 12 9.61118 12 9.33333C12 9.05549 11.8946 8.78902 11.7071 8.59256C11.5196 8.39609 11.2652 8.28571 11 8.28571C10.7348 8.28571 10.4804 8.39609 10.2929 8.59256C10.1054 8.78902 10 9.05549 10 9.33333C10 9.61118 10.1054 9.87765 10.2929 10.0741C10.4804 10.2706 10.7348 10.381 11 10.381ZM14 5.66667C14.2652 5.66667 14.5196 5.77704 14.7071 5.97351C14.8946 6.16997 15 6.43644 15 6.71429V11.9524C15 12.2302 14.8946 12.4967 14.7071 12.6932C14.5196 12.8896 14.2652 13 14 13H8C7.73478 13 7.48043 12.8896 7.29289 12.6932C7.10536 12.4967 7 12.2302 7 11.9524V6.71429C7 6.43644 7.10536 6.16997 7.29289 5.97351C7.48043 5.77704 7.73478 5.66667 8 5.66667H8.5V4.61905C8.5 3.92443 8.76339 3.25827 9.23223 2.7671C9.70107 2.27593 10.337 2 11 2C11.3283 2 11.6534 2.06774 11.9567 2.19936C12.26 2.33098 12.5356 2.5239 12.7678 2.7671C12.9999 3.0103 13.1841 3.29902 13.3097 3.61678C13.4353 3.93454 13.5 4.27511 13.5 4.61905V5.66667H14ZM11 3.04762C10.6022 3.04762 10.2206 3.21318 9.93934 3.50788C9.65804 3.80258 9.5 4.20228 9.5 4.61905V5.66667H12.5V4.61905C12.5 4.20228 12.342 3.80258 12.0607 3.50788C11.7794 3.21318 11.3978 3.04762 11 3.04762Z" fill="#294E68"/>
<path d="M6.04545 20C5.76931 20 5.54545 19.7761 5.54545 19.5C5.54545 19.2239 5.76931 19 6.04545 19H15.9545C16.2307 19 16.4545 19.2239 16.4545 19.5C16.4545 19.7761 16.2307 20 15.9545 20H6.04545ZM6.34254 16.7003C6.24697 16.8549 6.04792 16.909 5.88724 16.824L5.75479 16.754C5.59725 16.6707 5.54312 16.4714 5.63682 16.3198C5.76364 16.1147 5.61608 15.85 5.3749 15.85H5.3319C5.1486 15.85 5 15.7014 5 15.5181V15.4281C5 15.2469 5.14688 15.1 5.32806 15.1H5.38761C5.62105 15.1 5.7623 14.842 5.63653 14.6454C5.54344 14.4998 5.59457 14.3058 5.74731 14.225L5.8908 14.1491C6.05013 14.0648 6.24745 14.1168 6.34455 14.2687C6.48078 14.4817 6.79195 14.4817 6.92818 14.2687C7.02528 14.1168 7.2226 14.0648 7.38193 14.1491L7.52541 14.225C7.67815 14.3058 7.72929 14.4998 7.6362 14.6454C7.51043 14.842 7.65168 15.1 7.88512 15.1H7.94466C8.12585 15.1 8.27273 15.2469 8.27273 15.4281V15.5181C8.27273 15.7014 8.12413 15.85 7.94083 15.85H7.89783C7.65665 15.85 7.50909 16.1147 7.63591 16.3198C7.72961 16.4714 7.67547 16.6707 7.51794 16.754L7.38549 16.824C7.22481 16.909 7.02576 16.8549 6.93018 16.7003C6.79518 16.4819 6.47755 16.4819 6.34254 16.7003ZM10.7062 16.7003C10.6106 16.8549 10.4116 16.909 10.2509 16.824L10.1184 16.754C9.96089 16.6707 9.90675 16.4714 10.0005 16.3198C10.1273 16.1147 9.97971 15.85 9.73853 15.85H9.69554C9.51223 15.85 9.36364 15.7014 9.36364 15.5181V15.4281C9.36364 15.2469 9.51052 15.1 9.6917 15.1H9.75124C9.98469 15.1 10.1259 14.842 10.0002 14.6454C9.90707 14.4998 9.95821 14.3058 10.111 14.225L10.2544 14.1491C10.4138 14.0648 10.6111 14.1168 10.7082 14.2687C10.8444 14.4817 11.1556 14.4817 11.2918 14.2687C11.3889 14.1168 11.5862 14.0648 11.7456 14.1491L11.889 14.225C12.0418 14.3058 12.0929 14.4998 11.9998 14.6454C11.8741 14.842 12.0153 15.1 12.2488 15.1H12.3083C12.4895 15.1 12.6364 15.2469 12.6364 15.4281V15.5181C12.6364 15.7014 12.4878 15.85 12.3045 15.85H12.2615C12.0203 15.85 11.8727 16.1147 11.9995 16.3198C12.0932 16.4714 12.0391 16.6707 11.8816 16.754L11.7491 16.824C11.5884 16.909 11.3894 16.8549 11.2938 16.7003C11.1588 16.4819 10.8412 16.4819 10.7062 16.7003ZM15.0698 16.7003C14.9742 16.8549 14.7752 16.909 14.6145 16.824L14.4821 16.754C14.3245 16.6707 14.2704 16.4714 14.3641 16.3198C14.4909 16.1147 14.3434 15.85 14.1022 15.85H14.0592C13.8759 15.85 13.7273 15.7014 13.7273 15.5181V15.4281C13.7273 15.2469 13.8742 15.1 14.0553 15.1H14.1149C14.3483 15.1 14.4896 14.842 14.3638 14.6454C14.2707 14.4998 14.3218 14.3058 14.4746 14.225L14.6181 14.1491C14.7774 14.0648 14.9747 14.1168 15.0718 14.2687C15.208 14.4817 15.5192 14.4817 15.6555 14.2687C15.7526 14.1168 15.9499 14.0648 16.1092 14.1491L16.2527 14.225C16.4054 14.3058 16.4566 14.4998 16.3635 14.6454C16.2377 14.842 16.3789 15.1 16.6124 15.1H16.6719C16.8531 15.1 17 15.2469 17 15.4281V15.5181C17 15.7014 16.8514 15.85 16.6681 15.85H16.6251C16.3839 15.85 16.2364 16.1147 16.3632 16.3198C16.4569 16.4714 16.4027 16.6707 16.2452 16.754L16.1128 16.824C15.9521 16.909 15.753 16.8549 15.6575 16.7003C15.5224 16.4819 15.2048 16.4819 15.0698 16.7003Z" fill="#294E68"/>
</svg>
